<svg xmlns="http://www.w3.org/2000/svg" width="512" height="512" viewBox="0 0 512 512" role="img" aria-label="lintforge">
  <defs>
    <linearGradient id="badge" x1="0" y1="0" x2="0" y2="1">
      <stop offset="0" stop-color="#1E293B"/><stop offset="1" stop-color="#0F172A"/>
    </linearGradient>
    <linearGradient id="anvil" x1="0" y1="0" x2="0" y2="1">
      <stop offset="0" stop-color="#FBBF24"/><stop offset="1" stop-color="#F59E0B"/>
    </linearGradient>
  </defs>
  <rect x="26" y="26" width="460" height="460" rx="101.2" fill="url(#badge)" stroke="#334155" stroke-width="5.5"/>
  <g fill="url(#anvil)">
    <path d="M 157.4,230 L 359.5,230 L 359.5,274.4 L 191.9,274.4 Z"/><path d="M 199.3,235 L 199.3,274.4 L 122.9,254.7 Z"/><path d="M 359.5,235 L 389.1,244.8 L 359.5,274.4 Z"/><path d="M 226.4,274.4 L 300.4,274.4 L 280.6,333.5 L 241.2,333.5 Z"/><path d="M 187,333.5 L 329.9,333.5 L 344.7,368 L 172.2,368 Z"/>
  </g>
  <path d="M 344.7,173.4 L 353.6,191.6 L 371.8,200.5 L 353.6,209.3 L 344.7,227.6 L 335.8,209.3 L 317.6,200.5 L 335.8,191.6 Z" fill="#FBBF24"/>
  <path d="M 374.3,222.7 L 378.7,230.5 L 386.6,235 L 378.7,239.4 L 374.3,247.3 L 369.9,239.4 L 362,235 L 369.9,230.5 Z" fill="#E2E8F0"/>
  <circle cx="384.1" cy="205.4" r="3.7" fill="#FBBF24"/>
</svg>
